<?xml version="1.0" encoding="UTF-8" standalone="no"?>
<svg
   xmlns:dc="http://purl.org/dc/elements/1.1/"
   xmlns:cc="http://creativecommons.org/ns#"
   xmlns:rdf="http://www.w3.org/1999/02/22-rdf-syntax-ns#"
   xmlns:svg="http://www.w3.org/2000/svg"
   xmlns="http://www.w3.org/2000/svg"
   xmlns:sodipodi="http://sodipodi.sourceforge.net/DTD/sodipodi-0.dtd"
   xmlns:inkscape="http://www.inkscape.org/namespaces/inkscape"
   width="516.45886mm"
   height="238.49055mm"
   viewBox="0 0 516.45886 238.49056"
   version="1.1"
   id="svg8"
   inkscape:version="1.0 (4035a4f, 2020-05-01)"
   sodipodi:docname="5-types-schema.svg">
  <defs
     id="defs2">
    <style
       id="style853"
       type="text/css" />
    <style
       id="style867"
       type="text/css" />
    <style
       id="style1232"
       type="text/css" />
    <style
       type="text/css"
       id="style2806" />
  </defs>
  <sodipodi:namedview
     id="base"
     pagecolor="#ffffff"
     bordercolor="#666666"
     borderopacity="1.0"
     inkscape:pageopacity="0.0"
     inkscape:pageshadow="2"
     inkscape:zoom="0.22492854"
     inkscape:cx="180.68548"
     inkscape:cy="328.97296"
     inkscape:document-units="mm"
     inkscape:current-layer="layer1"
     inkscape:document-rotation="0"
     showgrid="false"
     inkscape:window-width="1494"
     inkscape:window-height="943"
     inkscape:window-x="223"
     inkscape:window-y="23"
     inkscape:window-maximized="0"
     fit-margin-top="2"
     fit-margin-left="2"
     fit-margin-right="2"
     fit-margin-bottom="2"
     lock-margins="true"
     inkscape:showpageshadow="true"
     showborder="true"
     inkscape:pagecheckerboard="false"
     scale-x="1" />
  <metadata
     id="metadata5">
    <rdf:RDF>
      <cc:Work
         rdf:about="">
        <dc:format>image/svg+xml</dc:format>
        <dc:type
           rdf:resource="http://purl.org/dc/dcmitype/StillImage" />
        <dc:title></dc:title>
      </cc:Work>
    </rdf:RDF>
  </metadata>
  <g
     inkscape:label="Layer 1"
     inkscape:groupmode="layer"
     id="layer1"
     transform="translate(-15.538095,-32.278644)">
    <rect
       style="fill:#bfddf7;fill-opacity:1;stroke-width:0.910266"
       id="rect833"
       width="135.34563"
       height="83.25927"
       x="17.538095"
       y="52.201122" />
    <text
       xml:space="preserve"
       style="font-size:10.3121px;line-height:1.25;font-family:sans-serif;word-spacing:0px;stroke-width:0.55243"
       x="19.905661"
       y="63.249748"
       id="text837"><tspan
         sodipodi:role="line"
         id="tspan835"
         x="19.905661"
         y="63.249748"
         style="font-style:normal;font-variant:normal;font-weight:bold;font-stretch:normal;font-size:10.3121px;font-family:sans-serif;-inkscape-font-specification:'sans-serif Bold';stroke-width:0.55243">Income</tspan><tspan
         sodipodi:role="line"
         x="19.905661"
         y="76.139877"
         style="font-size:10.3121px;stroke-width:0.55243"
         id="tspan881" /><tspan
         sodipodi:role="line"
         x="19.905661"
         y="89.029999"
         style="font-size:10.3121px;stroke-width:0.55243"
         id="tspan841">   Salary</tspan><tspan
         sodipodi:role="line"
         x="19.905661"
         y="101.92013"
         style="font-size:10.3121px;stroke-width:0.55243"
         id="tspan851">   Interest</tspan><tspan
         sodipodi:role="line"
         x="19.905661"
         y="114.81025"
         style="font-size:10.3121px;stroke-width:0.55243"
         id="tspan847">   Gift</tspan><tspan
         sodipodi:role="line"
         x="19.905661"
         y="127.70038"
         style="font-size:10.3121px;stroke-width:0.55243"
         id="tspan883">   ...</tspan></text>
    <path
       id="path871"
       p-id="22912"
       fill=""
       d="m 23.654302,81.229509 c -1.585809,0 -3.090984,1.639567 -3.090984,3.35977 v 0.02693 c 0,0.02693 0,0.08059 0.02687,0.107528 l 0.913857,3.789821 c 0,0.02693 0,0.02693 0.02687,0.02693 0.268781,0.483815 1.075125,0.752594 2.123371,0.752594 1.075125,0 1.854591,-0.268779 2.123372,-0.752594 0,0 0,-0.02693 0.02687,-0.02693 l 0.913858,-3.789821 c 0.02687,-0.02693 0.02687,-0.08059 0.02687,-0.107528 v -0.02693 c 0,-1.720203 -1.505175,-3.35977 -3.090984,-3.35977 z m 0,0.268779 c 1.317028,0 2.553422,1.236388 2.795325,2.634048 -0.537562,-0.322523 -1.666445,-0.483794 -2.795325,-0.483794 -1.128881,0 -2.257763,0.161188 -2.795325,0.483794 0.241903,-1.39766 1.478297,-2.634048 2.795325,-2.634048 z m 2.607178,3.628549 c -0.537562,0.241907 -1.505175,0.403158 -2.607178,0.403158 -1.102003,0 -2.069616,-0.161188 -2.607178,-0.403158 -0.08064,-0.02693 -0.107507,-0.107528 -0.08064,-0.188122 0.02687,-0.0806 0.107508,-0.107529 0.188143,-0.05387 0.510685,0.241907 1.424542,0.376286 2.499667,0.376286 1.048247,0 1.988982,-0.134462 2.499666,-0.376286 0.08064,-0.02693 0.134379,0 0.188143,0.05387 0.02687,0.08059 0,0.161188 -0.08063,0.188122 z"
       style="stroke-width:0.00787444" />
    <path
       style="stroke-width:0.00787442"
       d="m 23.654314,94.53409 c -1.585809,0 -3.090984,1.639567 -3.090984,3.35977 v 0.02693 c 0,0.02693 0,0.08059 0.02687,0.107528 l 0.913857,3.789822 c 0,0.0269 0,0.0269 0.02687,0.0269 0.268781,0.48381 1.075124,0.75259 2.123371,0.75259 1.075125,0 1.85459,-0.26878 2.123371,-0.75259 0,0 0,-0.0269 0.02687,-0.0269 L 26.7184,98.028322 c 0.02687,-0.02693 0.02687,-0.08059 0.02687,-0.107528 v -0.02693 c 4e-6,-1.720203 -1.505174,-3.35977 -3.090983,-3.35977 z m 0,0.268779 c 1.317028,0 2.553423,1.236388 2.795326,2.634048 -0.537563,-0.322523 -1.666445,-0.483794 -2.795326,-0.483794 -1.12888,0 -2.257763,0.161188 -2.795325,0.483794 0.241903,-1.39766 1.478298,-2.634048 2.795325,-2.634048 z m 2.607178,3.628549 c -0.537562,0.241907 -1.505175,0.403158 -2.607178,0.403158 -1.102002,0 -2.069615,-0.161188 -2.607177,-0.403158 -0.08064,-0.02693 -0.107508,-0.107528 -0.08064,-0.188123 0.02687,-0.08059 0.107507,-0.107528 0.188143,-0.05387 0.510684,0.241907 1.424542,0.376286 2.499666,0.376286 1.048247,0 1.988982,-0.134462 2.499667,-0.376286 0.08063,-0.02693 0.134379,0 0.188143,0.05387 0.02687,0.0806 0,0.161189 -0.08064,0.188123 z"
       fill=""
       p-id="22912"
       id="path871-9" />
    <path
       id="path871-9-6"
       p-id="22912"
       fill=""
       d="m 23.654317,107.35839 c -1.58581,0 -3.090985,1.63956 -3.090985,3.35977 v 0.0269 c 0,0.0269 0,0.0806 0.02687,0.10753 l 0.913857,3.78982 c 0,0.0269 0,0.0269 0.02687,0.0269 0.268781,0.48382 1.075124,0.7526 2.123371,0.7526 1.075125,0 1.85459,-0.26878 2.123371,-0.7526 0,0 0,-0.0269 0.02687,-0.0269 l 0.913855,-3.78982 c 0.02687,-0.0269 0.02687,-0.0806 0.02687,-0.10753 v -0.0269 c 6e-6,-1.72021 -1.505171,-3.35977 -3.09098,-3.35977 z m 0,0.26878 c 1.317027,0 2.553422,1.23638 2.795325,2.63404 -0.537562,-0.32252 -1.666445,-0.48379 -2.795325,-0.48379 -1.128881,0 -2.257763,0.16119 -2.795326,0.48379 0.241903,-1.39766 1.478298,-2.63404 2.795326,-2.63404 z m 2.607177,3.62854 c -0.537562,0.24191 -1.505175,0.40316 -2.607177,0.40316 -1.102003,0 -2.069616,-0.16119 -2.607178,-0.40316 -0.08064,-0.0269 -0.107508,-0.10752 -0.08064,-0.18812 0.02687,-0.0806 0.107507,-0.10753 0.188143,-0.0539 0.510685,0.24191 1.424542,0.37629 2.499666,0.37629 1.048247,0 1.988982,-0.13446 2.499667,-0.37629 0.08064,-0.0269 0.134379,0 0.188143,0.0539 0.02687,0.0806 0,0.16119 -0.08064,0.18812 z"
       style="stroke-width:0.00787442" />
    <path
       style="stroke-width:0.00787442"
       d="m 23.654317,120.37998 c -1.58581,0 -3.090985,1.63957 -3.090985,3.35977 v 0.0269 c 0,0.0269 0,0.0806 0.02687,0.10753 l 0.913857,3.78982 c 0,0.0269 0,0.0269 0.02687,0.0269 0.268781,0.48381 1.075124,0.75259 2.123371,0.75259 1.075125,0 1.85459,-0.26878 2.123371,-0.75259 0,0 0,-0.0269 0.02687,-0.0269 l 0.913855,-3.78982 c 0.02687,-0.0269 0.02687,-0.0806 0.02687,-0.10753 v -0.0269 c 8e-6,-1.7202 -1.505169,-3.35977 -3.090978,-3.35977 z m 0,0.26878 c 1.317027,0 2.553422,1.23639 2.795325,2.63404 -0.537562,-0.32252 -1.666445,-0.48379 -2.795325,-0.48379 -1.128881,0 -2.257763,0.16119 -2.795326,0.48379 0.241903,-1.39765 1.478298,-2.63404 2.795326,-2.63404 z m 2.607177,3.62855 c -0.537562,0.2419 -1.505175,0.40315 -2.607177,0.40315 -1.102003,0 -2.069616,-0.16118 -2.607178,-0.40315 -0.08064,-0.0269 -0.107508,-0.10753 -0.08064,-0.18813 0.02687,-0.0806 0.107507,-0.10752 0.188143,-0.0539 0.510685,0.2419 1.424542,0.37628 2.499666,0.37628 1.048247,0 1.988982,-0.13446 2.499667,-0.37628 0.08064,-0.0269 0.134379,0 0.188143,0.0539 0.02687,0.0806 0,0.16119 -0.08064,0.18813 z"
       fill=""
       p-id="22912"
       id="path871-9-6-4" />
    <text
       id="text837-9"
       y="147.57564"
       x="26.491867"
       style="font-size:10.3121px;line-height:1.25;font-family:sans-serif;word-spacing:0px;fill:#135c9c;fill-opacity:1;stroke-width:0.55243"
       xml:space="preserve"
       transform="rotate(-20.038134)"><tspan
         id="tspan883-9"
         style="font-size:10.3121px;fill:#135c9c;fill-opacity:1;stroke-width:0.55243"
         y="147.57564"
         x="26.491867"
         sodipodi:role="line">What you earn</tspan></text>
    <rect
       y="52.082756"
       x="206.82469"
       height="83.25927"
       width="135.34563"
       id="rect833-4"
       style="fill:#deefc8;fill-opacity:1;stroke-width:0.910268" />
    <text
       id="text837-8"
       y="63.131374"
       x="209.19225"
       style="font-size:10.3121px;line-height:1.25;font-family:sans-serif;word-spacing:0px;stroke-width:0.55243"
       xml:space="preserve"><tspan
         style="font-style:normal;font-variant:normal;font-weight:bold;font-stretch:normal;font-size:10.3121px;font-family:sans-serif;-inkscape-font-specification:'sans-serif Bold';stroke-width:0.55243"
         y="63.131374"
         x="209.19225"
         id="tspan835-4"
         sodipodi:role="line">Asset</tspan><tspan
         id="tspan881-8"
         style="font-size:10.3121px;stroke-width:0.55243"
         y="76.0215"
         x="209.19225"
         sodipodi:role="line" /><tspan
         id="tspan841-4"
         style="font-size:10.3121px;stroke-width:0.55243"
         y="88.911629"
         x="209.19225"
         sodipodi:role="line">   Checking account</tspan><tspan
         id="tspan851-3"
         style="font-size:10.3121px;stroke-width:0.55243"
         y="101.80175"
         x="209.19225"
         sodipodi:role="line">   Saving</tspan><tspan
         id="tspan847-4"
         style="font-size:10.3121px;stroke-width:0.55243"
         y="114.69188"
         x="209.19225"
         sodipodi:role="line">   Cash</tspan><tspan
         id="tspan883-4"
         style="font-size:10.3121px;stroke-width:0.55243"
         y="127.582"
         x="209.19225"
         sodipodi:role="line">   ...</tspan></text>
    <path
       style="stroke-width:0.00787442"
       d="m 212.94089,81.111134 c -1.5858,0 -3.09099,1.639567 -3.09099,3.35977 v 0.02693 c 0,0.02693 0,0.08059 0.0269,0.107528 l 0.91387,3.789821 c 0,0.02693 0,0.02693 0.0269,0.02693 0.26878,0.483815 1.07512,0.752594 2.12339,0.752594 1.07511,0 1.85458,-0.268779 2.12336,-0.752594 0,0 0,-0.02693 0.0269,-0.02693 l 0.91387,-3.789819 c 0.0269,-0.02693 0.0269,-0.08059 0.0269,-0.107528 v -0.02693 c 0,-1.720203 -1.50519,-3.35977 -3.09099,-3.35977 z m 0,0.268779 c 1.31702,0 2.55343,1.236388 2.79532,2.634047 -0.53756,-0.322522 -1.66644,-0.483794 -2.79532,-0.483794 -1.12888,0 -2.25776,0.161189 -2.79532,0.483794 0.24191,-1.397659 1.4783,-2.634047 2.79532,-2.634047 z m 2.60718,3.628549 c -0.53756,0.241907 -1.50517,0.403158 -2.60718,0.403158 -1.10201,0 -2.06962,-0.161188 -2.60718,-0.403158 -0.0806,-0.02693 -0.10752,-0.107529 -0.0806,-0.188123 0.0269,-0.08059 0.10753,-0.107528 0.18812,-0.05387 0.51069,0.241907 1.42455,0.376286 2.49967,0.376286 1.04825,0 1.98898,-0.134462 2.49967,-0.376286 0.0806,-0.02693 0.13446,0 0.18812,0.05387 0.0269,0.08059 0,0.161189 -0.0806,0.188123 z"
       fill=""
       p-id="22912"
       id="path871-2" />
    <path
       id="path871-9-5"
       p-id="22912"
       fill=""
       d="m 212.94091,94.415715 c -1.58582,0 -3.09099,1.639567 -3.09099,3.35977 v 0.02693 c 0,0.02693 0,0.08059 0.0269,0.107528 l 0.91387,3.789827 c 0,0.0269 0,0.0269 0.0269,0.0269 0.26878,0.48382 1.07512,0.7526 2.12337,0.7526 1.07513,0 1.8546,-0.26878 2.12338,-0.7526 0,0 0,-0.0269 0.0269,-0.0269 l 0.91385,-3.789829 c 0.0269,-0.02693 0.0269,-0.08059 0.0269,-0.107528 v -0.02693 c 0,-1.720203 -1.50517,-3.35977 -3.09097,-3.35977 z m 0,0.268779 c 1.31702,0 2.55341,1.236388 2.79532,2.634047 -0.53756,-0.322522 -1.66644,-0.483794 -2.79532,-0.483794 -1.12888,0 -2.25776,0.161188 -2.79534,0.483794 0.24191,-1.397659 1.47832,-2.634047 2.79534,-2.634047 z m 2.60718,3.628549 c -0.53756,0.241907 -1.50519,0.403158 -2.60718,0.403158 -1.10201,0 -2.06962,-0.161188 -2.60718,-0.403158 -0.0806,-0.02693 -0.10752,-0.107529 -0.0806,-0.188123 0.0269,-0.08059 0.10753,-0.107528 0.18812,-0.05387 0.51069,0.241907 1.42453,0.376284 2.49967,0.376284 1.04825,0 1.98898,-0.134462 2.49965,-0.376284 0.0806,-0.02693 0.13446,0 0.18812,0.05387 0.0269,0.08059 0,0.161188 -0.0806,0.188123 z"
       style="stroke-width:0.00787442" />
    <path
       style="stroke-width:0.00787442"
       d="m 212.94091,107.24001 c -1.5858,0 -3.09099,1.63957 -3.09099,3.35977 v 0.0269 c 0,0.0269 0,0.0806 0.0269,0.10753 l 0.91387,3.78982 c 0,0.0269 0,0.0269 0.0269,0.0269 0.26878,0.48381 1.07512,0.75259 2.12337,0.75259 1.07513,0 1.8546,-0.26878 2.12338,-0.75259 0,0 0,-0.0269 0.0269,-0.0269 l 0.91385,-3.78982 c 0.0269,-0.0269 0.0269,-0.0806 0.0269,-0.10753 v -0.0269 c 2e-5,-1.7202 -1.50517,-3.35977 -3.09097,-3.35977 z m 0,0.26878 c 1.31702,0 2.55341,1.23639 2.79532,2.63405 -0.53756,-0.32253 -1.66644,-0.4838 -2.79532,-0.4838 -1.12888,0 -2.25776,0.16119 -2.79532,0.4838 0.24189,-1.39766 1.4783,-2.63405 2.79532,-2.63405 z m 2.60718,3.62855 c -0.53756,0.2419 -1.50517,0.40316 -2.60718,0.40316 -1.10201,0 -2.06962,-0.16119 -2.60718,-0.40316 -0.0806,-0.0269 -0.10752,-0.10753 -0.0806,-0.18812 0.0269,-0.0806 0.10753,-0.10753 0.18812,-0.0539 0.51069,0.2419 1.42453,0.37628 2.49967,0.37628 1.04825,0 1.98898,-0.13446 2.49967,-0.37628 0.0806,-0.0269 0.13446,0 0.18812,0.0539 0.0269,0.0806 0,0.16118 -0.0806,0.18812 z"
       fill=""
       p-id="22912"
       id="path871-9-6-1" />
    <path
       id="path871-9-6-4-9"
       p-id="22912"
       fill=""
       d="m 212.94091,120.26161 c -1.5858,0 -3.09099,1.63956 -3.09099,3.35977 v 0.0269 c 0,0.0269 0,0.0806 0.0269,0.10753 l 0.91387,3.78982 c 0,0.0269 0,0.0269 0.0269,0.0269 0.26878,0.48382 1.07512,0.7526 2.12337,0.7526 1.07513,0 1.8546,-0.26878 2.12338,-0.7526 0,0 0,-0.0269 0.0269,-0.0269 l 0.91385,-3.78982 c 0.0269,-0.0269 0.0269,-0.0806 0.0269,-0.10753 v -0.0269 c 2e-5,-1.72021 -1.50517,-3.35977 -3.09097,-3.35977 z m 0,0.26878 c 1.31702,0 2.55341,1.23638 2.79532,2.63404 -0.53756,-0.32252 -1.66644,-0.48379 -2.79532,-0.48379 -1.12888,0 -2.25776,0.16119 -2.79532,0.48379 0.24189,-1.39766 1.4783,-2.63404 2.79532,-2.63404 z m 2.60718,3.62855 c -0.53756,0.2419 -1.50517,0.40315 -2.60718,0.40315 -1.10201,0 -2.06962,-0.16118 -2.60718,-0.40315 -0.0806,-0.0269 -0.10752,-0.10753 -0.0806,-0.18813 0.0269,-0.0806 0.10753,-0.10753 0.18812,-0.0539 0.51069,0.24191 1.42453,0.37629 2.49967,0.37629 1.04825,0 1.98898,-0.13446 2.49967,-0.37629 0.0806,-0.0269 0.13446,0 0.18812,0.0539 0.0269,0.0806 0,0.16119 -0.0806,0.18813 z"
       style="stroke-width:0.00787442" />
    <text
       transform="rotate(-20.038134)"
       xml:space="preserve"
       style="font-size:10.3121px;line-height:1.25;font-family:sans-serif;word-spacing:0px;fill:#66942b;fill-opacity:1;stroke-width:0.55243"
       x="207.85304"
       y="212.42033"
       id="text837-9-9"><tspan
         sodipodi:role="line"
         x="207.85304"
         y="212.42033"
         style="font-size:10.3121px;fill:#66942b;fill-opacity:1;stroke-width:0.55243"
         id="tspan883-9-2">What you own</tspan></text>
    <rect
       style="fill:#bfddf7;fill-opacity:1;stroke-width:0.910268"
       id="rect833-4-3"
       width="135.34563"
       height="83.25927"
       x="394.65131"
       y="52.082741" />
    <text
       xml:space="preserve"
       style="font-size:10.3121px;line-height:1.25;font-family:sans-serif;word-spacing:0px;stroke-width:0.55243"
       x="397.01886"
       y="63.131359"
       id="text837-8-6"><tspan
         sodipodi:role="line"
         id="tspan835-4-0"
         x="397.01886"
         y="63.131359"
         style="font-style:normal;font-variant:normal;font-weight:bold;font-stretch:normal;font-size:10.3121px;font-family:sans-serif;-inkscape-font-specification:'sans-serif Bold';stroke-width:0.55243">Expense</tspan><tspan
         sodipodi:role="line"
         x="397.01886"
         y="76.021484"
         style="font-size:10.3121px;stroke-width:0.55243"
         id="tspan881-8-3" /><tspan
         sodipodi:role="line"
         x="397.01886"
         y="88.911613"
         style="font-size:10.3121px;stroke-width:0.55243"
         id="tspan841-4-5">   Grocery</tspan><tspan
         sodipodi:role="line"
         x="397.01886"
         y="101.80173"
         style="font-size:10.3121px;stroke-width:0.55243"
         id="tspan851-3-7">   Electricity</tspan><tspan
         sodipodi:role="line"
         x="397.01886"
         y="114.69186"
         style="font-size:10.3121px;stroke-width:0.55243"
         id="tspan847-4-6">   Rent</tspan><tspan
         sodipodi:role="line"
         x="397.01886"
         y="127.58199"
         style="font-size:10.3121px;stroke-width:0.55243"
         id="tspan883-4-1">   ...</tspan></text>
    <path
       id="path871-2-5"
       p-id="22912"
       fill=""
       d="m 400.76748,81.111123 c -1.5858,0 -3.09099,1.639567 -3.09099,3.35977 v 0.02693 c 0,0.02693 0,0.0806 0.0269,0.107529 l 0.91387,3.78982 c 0,0.02693 0,0.02693 0.0269,0.02693 0.26878,0.483814 1.07512,0.752593 2.12338,0.752593 1.07512,0 1.85459,-0.268779 2.12337,-0.752593 0,0 0,-0.02693 0.0269,-0.02693 l 0.91387,-3.789818 c 0.0269,-0.02693 0.0269,-0.08059 0.0269,-0.107528 v -0.02693 c 0,-1.720203 -1.50519,-3.359769 -3.09099,-3.359769 z m 0,0.268779 c 1.31702,0 2.55343,1.236388 2.79532,2.634048 -0.53756,-0.322522 -1.66644,-0.483794 -2.79532,-0.483794 -1.12888,0 -2.25776,0.161188 -2.79532,0.483794 0.24191,-1.39766 1.4783,-2.634048 2.79532,-2.634048 z m 2.60717,3.628549 c -0.53755,0.241908 -1.50516,0.403159 -2.60717,0.403159 -1.10201,0 -2.06962,-0.161189 -2.60718,-0.403159 -0.0806,-0.02693 -0.10753,-0.107528 -0.0806,-0.188122 0.0269,-0.08059 0.10753,-0.107528 0.18812,-0.05387 0.51069,0.241908 1.42455,0.376287 2.49967,0.376287 1.04824,0 1.98898,-0.134463 2.49967,-0.376287 0.0806,-0.02693 0.13446,0 0.18812,0.05387 0.0269,0.08059 0,0.161188 -0.0806,0.188122 z"
       style="stroke-width:0.00787442" />
    <path
       style="stroke-width:0.00787442"
       d="m 400.7675,94.415704 c -1.58582,0 -3.09099,1.639567 -3.09099,3.35977 v 0.02693 c 0,0.02693 0,0.08059 0.0269,0.107529 l 0.91387,3.789827 c 0,0.0269 0,0.0269 0.0269,0.0269 0.26878,0.48382 1.07512,0.7526 2.12336,0.7526 1.07514,0 1.85461,-0.26878 2.12339,-0.7526 0,0 0,-0.0269 0.0269,-0.0269 l 0.91385,-3.789829 c 0.0269,-0.02694 0.0269,-0.08059 0.0269,-0.107529 v -0.02693 c 0,-1.720203 -1.50517,-3.35977 -3.09097,-3.35977 z m 0,0.268779 c 1.31702,0 2.55341,1.236388 2.79532,2.634048 -0.53756,-0.322522 -1.66644,-0.483794 -2.79532,-0.483794 -1.12888,0 -2.25776,0.161188 -2.79534,0.483794 0.24191,-1.39766 1.47832,-2.634048 2.79534,-2.634048 z m 2.60718,3.628549 c -0.53756,0.241908 -1.50519,0.403158 -2.60718,0.403158 -1.10201,0 -2.06962,-0.161188 -2.60718,-0.403158 -0.0806,-0.02693 -0.10752,-0.107528 -0.0806,-0.188122 0.0269,-0.08059 0.10753,-0.107528 0.18812,-0.05387 0.51069,0.241908 1.42453,0.376285 2.49967,0.376285 1.04825,0 1.98898,-0.134463 2.49965,-0.376285 0.0806,-0.02693 0.13446,0 0.18812,0.05387 0.0269,0.08059 0,0.161188 -0.0806,0.188122 z"
       fill=""
       p-id="22912"
       id="path871-9-5-4" />
    <path
       id="path871-9-6-1-6"
       p-id="22912"
       fill=""
       d="m 400.7675,107.23999 c -1.5858,0 -3.09099,1.63957 -3.09099,3.35977 v 0.0269 c 0,0.0269 0,0.0806 0.0269,0.10753 l 0.91387,3.78982 c 0,0.0269 0,0.0269 0.0269,0.0269 0.26878,0.48381 1.07512,0.75259 2.12336,0.75259 1.07514,0 1.85461,-0.26878 2.12339,-0.75259 0,0 0,-0.0269 0.0269,-0.0269 l 0.91385,-3.78982 c 0.0269,-0.0269 0.0269,-0.0806 0.0269,-0.10753 v -0.0269 c 2e-5,-1.7202 -1.50517,-3.35977 -3.09097,-3.35977 z m 0,0.26878 c 1.31702,0 2.55341,1.23639 2.79532,2.63405 -0.53756,-0.32252 -1.66644,-0.48379 -2.79532,-0.48379 -1.12888,0 -2.25776,0.16118 -2.79532,0.48379 0.24189,-1.39766 1.4783,-2.63405 2.79532,-2.63405 z m 2.60718,3.62855 c -0.53756,0.24191 -1.50517,0.40316 -2.60718,0.40316 -1.10201,0 -2.06962,-0.16119 -2.60718,-0.40316 -0.0806,-0.0269 -0.10752,-0.10753 -0.0806,-0.18812 0.0269,-0.0806 0.10753,-0.10753 0.18812,-0.0539 0.51069,0.24191 1.42453,0.37629 2.49967,0.37629 1.04825,0 1.98898,-0.13447 2.49967,-0.37629 0.0806,-0.0269 0.13446,0 0.18812,0.0539 0.0269,0.0806 0,0.16119 -0.0806,0.18812 z"
       style="stroke-width:0.00787442" />
    <path
       style="stroke-width:0.00787442"
       d="m 400.7675,120.26159 c -1.5858,0 -3.09099,1.63957 -3.09099,3.35977 v 0.0269 c 0,0.0269 0,0.0806 0.0269,0.10753 l 0.91387,3.78982 c 0,0.0269 0,0.0269 0.0269,0.0269 0.26878,0.48383 1.07512,0.75261 2.12336,0.75261 1.07514,0 1.85461,-0.26878 2.12339,-0.75261 0,0 0,-0.0269 0.0269,-0.0269 l 0.91385,-3.78982 c 0.0269,-0.0269 0.0269,-0.0806 0.0269,-0.10753 v -0.0269 c 2e-5,-1.7202 -1.50517,-3.35977 -3.09097,-3.35977 z m 0,0.26878 c 1.31702,0 2.55341,1.23639 2.79532,2.63405 -0.53756,-0.32253 -1.66644,-0.4838 -2.79532,-0.4838 -1.12888,0 -2.25776,0.16119 -2.79532,0.4838 0.24189,-1.39766 1.4783,-2.63405 2.79532,-2.63405 z m 2.60718,3.62855 c -0.53756,0.24191 -1.50517,0.40316 -2.60718,0.40316 -1.10201,0 -2.06962,-0.16119 -2.60718,-0.40316 -0.0806,-0.0269 -0.10752,-0.10753 -0.0806,-0.18812 0.0269,-0.0806 0.10753,-0.10753 0.18812,-0.0539 0.51069,0.2419 1.42453,0.37628 2.49967,0.37628 1.04825,0 1.98898,-0.13446 2.49967,-0.37628 0.0806,-0.0269 0.13446,0 0.18812,0.0539 0.0269,0.0806 0,0.16118 -0.0806,0.18812 z"
       fill=""
       p-id="22912"
       id="path871-9-6-4-9-6" />
    <text
       id="text837-9-9-4"
       y="274.7876"
       x="375.62711"
       style="font-size:10.3121px;line-height:1.25;font-family:sans-serif;word-spacing:0px;fill:#135c9c;fill-opacity:1;stroke-width:0.55243"
       xml:space="preserve"
       transform="rotate(-20.038134)"><tspan
         id="tspan883-9-2-8"
         style="font-size:10.3121px;fill:#135c9c;fill-opacity:1;stroke-width:0.55243"
         y="274.7876"
         x="375.62711"
         sodipodi:role="line">What you spend</tspan></text>
    <rect
       style="fill:#deefc8;fill-opacity:1;stroke-width:0.910268"
       id="rect833-4-5"
       width="135.34563"
       height="83.25927"
       x="205.65981"
       y="185.50993" />
    <text
       xml:space="preserve"
       style="font-size:10.3121px;line-height:1.25;font-family:sans-serif;word-spacing:0px;stroke-width:0.55243"
       x="208.02736"
       y="196.55855"
       id="text837-8-66"><tspan
         sodipodi:role="line"
         id="tspan835-4-4"
         x="208.02736"
         y="196.55855"
         style="font-style:normal;font-variant:normal;font-weight:bold;font-stretch:normal;font-size:10.3121px;font-family:sans-serif;-inkscape-font-specification:'sans-serif Bold';stroke-width:0.55243">Liability</tspan><tspan
         sodipodi:role="line"
         x="208.02736"
         y="209.44867"
         style="font-size:10.3121px;stroke-width:0.55243"
         id="tspan881-8-7" /><tspan
         sodipodi:role="line"
         x="208.02736"
         y="222.33881"
         style="font-size:10.3121px;stroke-width:0.55243"
         id="tspan841-4-1">   Loan</tspan><tspan
         sodipodi:role="line"
         x="208.02736"
         y="235.22893"
         style="font-size:10.3121px;stroke-width:0.55243"
         id="tspan847-4-4">   Credit card</tspan><tspan
         sodipodi:role="line"
         x="208.02736"
         y="248.11905"
         style="font-size:10.3121px;stroke-width:0.55243"
         id="tspan883-4-7">   ...</tspan></text>
    <path
       id="path871-2-4"
       p-id="22912"
       fill=""
       d="m 211.77601,214.53838 c -1.5858,0 -3.09099,1.63957 -3.09099,3.35977 v 0.0269 c 0,0.0269 0,0.0806 0.0269,0.10753 l 0.91386,3.78982 c 0,0.0269 0,0.0269 0.0269,0.0269 0.26878,0.48382 1.07511,0.75259 2.12338,0.75259 1.07512,0 1.85458,-0.26877 2.12336,-0.75259 0,0 0,-0.0269 0.0269,-0.0269 l 0.91387,-3.78982 c 0.0269,-0.0269 0.0269,-0.0806 0.0269,-0.10753 v -0.0269 c 0,-1.7202 -1.50518,-3.35977 -3.09099,-3.35977 z m 0,0.26878 c 1.31703,0 2.55344,1.23639 2.79532,2.63405 -0.53756,-0.32252 -1.66644,-0.48379 -2.79532,-0.48379 -1.12888,0 -2.25776,0.16118 -2.79532,0.48379 0.24191,-1.39766 1.4783,-2.63405 2.79532,-2.63405 z m 2.60718,3.62855 c -0.53756,0.24191 -1.50517,0.40316 -2.60718,0.40316 -1.10201,0 -2.06961,-0.16119 -2.60717,-0.40316 -0.0806,-0.0269 -0.10753,-0.10753 -0.0806,-0.18812 0.0269,-0.0806 0.10753,-0.10753 0.18813,-0.0539 0.51068,0.24191 1.42455,0.37629 2.49966,0.37629 1.04825,0 1.98899,-0.13447 2.49967,-0.37629 0.0806,-0.0269 0.13447,0 0.18813,0.0539 0.0269,0.0806 0,0.16119 -0.0806,0.18812 z"
       style="stroke-width:0.00787442" />
    <path
       style="stroke-width:0.00787442"
       d="m 211.77603,227.84296 c -1.58582,0 -3.09099,1.63956 -3.09099,3.35977 v 0.0269 c 0,0.0269 0,0.0806 0.0269,0.10753 l 0.91386,3.78982 c 0,0.0269 0,0.0269 0.0269,0.0269 0.26878,0.48382 1.07511,0.7526 2.12336,0.7526 1.07514,0 1.8546,-0.26878 2.12338,-0.7526 0,0 0,-0.0269 0.0269,-0.0269 l 0.91385,-3.78982 c 0.0269,-0.0269 0.0269,-0.0806 0.0269,-0.10753 v -0.0269 c 0,-1.72021 -1.50516,-3.35977 -3.09097,-3.35977 z m 0,0.26878 c 1.31703,0 2.55342,1.23638 2.79532,2.63404 -0.53755,-0.32252 -1.66644,-0.48379 -2.79532,-0.48379 -1.12888,0 -2.25776,0.16119 -2.79534,0.48379 0.24191,-1.39766 1.47832,-2.63404 2.79534,-2.63404 z m 2.60718,3.62855 c -0.53756,0.2419 -1.50519,0.40315 -2.60718,0.40315 -1.102,0 -2.06961,-0.16118 -2.60717,-0.40315 -0.0806,-0.0269 -0.10753,-0.10753 -0.0806,-0.18813 0.0269,-0.0806 0.10753,-0.10753 0.18813,-0.0539 0.51068,0.24191 1.42453,0.37629 2.49967,0.37629 1.04824,0 1.98898,-0.13446 2.49964,-0.37629 0.0806,-0.0269 0.13447,0 0.18813,0.0539 0.0269,0.0806 0,0.16119 -0.0806,0.18813 z"
       fill=""
       p-id="22912"
       id="path871-9-5-7" />
    <path
       id="path871-9-6-1-4"
       p-id="22912"
       fill=""
       d="m 211.77603,240.66727 c -1.5858,0 -3.09099,1.63956 -3.09099,3.35977 v 0.0269 c 0,0.0269 0,0.0806 0.0269,0.10753 l 0.91386,3.78982 c 0,0.0269 0,0.0269 0.0269,0.0269 0.26878,0.48382 1.07511,0.7526 2.12336,0.7526 1.07514,0 1.8546,-0.26878 2.12338,-0.7526 0,0 0,-0.0269 0.0269,-0.0269 l 0.91385,-3.78982 c 0.0269,-0.0269 0.0269,-0.0806 0.0269,-0.10753 v -0.0269 c 2e-5,-1.72021 -1.50516,-3.35977 -3.09097,-3.35977 z m 0,0.26878 c 1.31703,0 2.55342,1.23638 2.79532,2.63404 -0.53755,-0.32252 -1.66644,-0.48379 -2.79532,-0.48379 -1.12888,0 -2.25776,0.16119 -2.79531,0.48379 0.24188,-1.39766 1.47829,-2.63404 2.79531,-2.63404 z m 2.60718,3.62855 c -0.53756,0.2419 -1.50517,0.40315 -2.60718,0.40315 -1.102,0 -2.06961,-0.16118 -2.60717,-0.40315 -0.0806,-0.0269 -0.10753,-0.10753 -0.0806,-0.18813 0.0269,-0.0806 0.10753,-0.10753 0.18813,-0.0539 0.51068,0.24191 1.42453,0.37629 2.49967,0.37629 1.04824,0 1.98898,-0.13446 2.49966,-0.37629 0.0806,-0.0269 0.13447,0 0.18813,0.0539 0.0269,0.0806 0,0.16119 -0.0806,0.18813 z"
       style="stroke-width:0.00787442" />
    <text
       id="text837-9-9-40"
       y="338.78787"
       x="161.69983"
       style="font-size:10.3121px;line-height:1.25;font-family:sans-serif;word-spacing:0px;fill:#66942b;fill-opacity:1;stroke-width:0.55243"
       xml:space="preserve"
       transform="rotate(-20.038134)"><tspan
         id="tspan883-9-2-6"
         style="font-size:10.3121px;fill:#66942b;fill-opacity:1;stroke-width:0.55243"
         y="338.78787"
         x="161.69983"
         sodipodi:role="line">What you owe</tspan></text>
    <path
       id="path1236"
       p-id="23646"
       d="m 198.17658,93.829399 -11.83214,-3.704904 0.0125,2.49144 -26.21492,0.07157 0.0134,2.491454 26.21493,-0.07157 0.0125,2.49144 z"
       style="fill:#808080;stroke-width:0.0183616"
       sodipodi:nodetypes="cccccccc" />
    <path
       sodipodi:nodetypes="cccccccc"
       style="fill:#808080;stroke-width:0.0183615"
       d="m 387.75227,93.870436 -11.83213,-3.704905 0.0125,2.49144 -26.21493,0.07157 0.0125,2.491455 26.21495,-0.07157 0.0125,2.49144 z"
       p-id="23646"
       id="path1236-2" />
    <path
       sodipodi:nodetypes="cccccccc"
       style="fill:#808080;stroke-width:0.0183615"
       d="m 269.54888,141.19977 -3.75898,11.81506 2.49146,-10e-4 -0.0482,26.21498 2.49148,-0.001 0.0482,-26.21504 2.49147,-10e-4 z"
       p-id="23646"
       id="path1236-26" />
    <path
       id="path1236-26-7"
       p-id="23646"
       d="m 280.40838,179.36244 -3.75898,-11.81508 2.49147,0.001 -0.0482,-26.21495 2.49149,0.001 0.0482,26.21502 2.49146,0.001 z"
       style="fill:#808080;stroke-width:0.0183615"
       sodipodi:nodetypes="cccccccc" />
    <path
       id="path2825-6"
       style="fill:#808080;fill-opacity:1;stroke-width:0.0515683"
       d="m 216.68273,41.067196 -0.11692,9.283345 -6.10022,-7.099348 1.98545,-0.737678 c -0.5589,-0.958978 -1.25472,-1.836695 -2.07135,-2.607717 -1.09234,-1.031405 -2.34815,-1.825969 -3.74115,-2.368955 -1.44002,-0.562265 -2.95906,-0.823041 -4.52097,-0.77808 -1.56188,0.04485 -3.06347,0.392301 -4.46884,1.036248 -1.35959,0.621987 -2.56777,1.487252 -3.59915,2.579594 -1.03139,1.09234 -1.82595,2.348137 -2.36892,3.741145 -0.56228,1.440027 -0.82306,2.959081 -0.77821,4.520938 0.0449,1.561873 0.3923,3.063494 1.03624,4.468865 0.62197,1.359596 1.48723,2.567755 2.57961,3.599125 1.09228,1.031402 2.34813,1.825969 3.74113,2.368935 1.16987,0.456793 2.40087,0.661329 3.65563,0.717937 l 0.0722,2.515513 c -7.35124,-0.237612 -13.3452,-6.148382 -13.55904,-13.599375 -0.22222,-7.742324 5.87603,-14.200973 13.61842,-14.423154 5.50002,-0.157847 10.34863,2.870583 12.77474,7.413066 z"
       sodipodi:nodetypes="ccccscscscscscccsscc" />
    <path
       sodipodi:nodetypes="ccccscscscscscccsscc"
       d="m 214.76908,173.01305 -0.11692,9.28333 -6.10022,-7.09934 1.98545,-0.73768 c -0.5589,-0.95899 -1.25472,-1.83669 -2.07135,-2.60772 -1.09234,-1.0314 -2.34815,-1.82597 -3.74115,-2.36895 -1.44002,-0.56227 -2.95905,-0.82305 -4.52097,-0.77808 -1.56188,0.0448 -3.06347,0.3923 -4.46886,1.03624 -1.35959,0.62199 -2.56777,1.48726 -3.59915,2.57959 -1.03139,1.09234 -1.82596,2.34815 -2.36892,3.74115 -0.56228,1.44003 -0.82306,2.95908 -0.77821,4.52093 0.0449,1.56188 0.3923,3.06352 1.03624,4.46888 0.62197,1.3596 1.48723,2.56776 2.57961,3.59913 1.09228,1.03139 2.34813,1.82596 3.74115,2.36892 1.16987,0.4568 2.40087,0.66133 3.65563,0.71794 l 0.0722,2.51551 c -7.35126,-0.2376 -13.34522,-6.14838 -13.55906,-13.59937 -0.22221,-7.74233 5.87603,-14.20097 13.61844,-14.42315 5.50003,-0.15785 10.34863,2.87058 12.77475,7.41306 z"
       style="fill:#808080;fill-opacity:1;stroke-width:0.0515683"
       id="path2825-6-1" />
  </g>
</svg>
