<?xml version="1.0" standalone="no"?><!DOCTYPE svg PUBLIC "-//W3C//DTD SVG 1.1//EN" "http://www.w3.org/Graphics/SVG/1.1/DTD/svg11.dtd"><svg t="1550224932897" class="icon" style="" viewBox="0 0 1024 1024" version="1.1" xmlns="http://www.w3.org/2000/svg" p-id="839" xmlns:xlink="http://www.w3.org/1999/xlink" width="200" height="200"><defs><style type="text/css"></style></defs><path d="M810.666667 128h-178.56c-17.493333-49.493333-64.426667-85.333333-120.106667-85.333333s-102.613333 35.84-120.106667 85.333333H213.333333c-47.146667 0-85.333333 38.186667-85.333333 85.333333v597.333334c0 47.146667 38.186667 85.333333 85.333333 85.333333h597.333334c47.146667 0 85.333333-38.186667 85.333333-85.333333V213.333333c0-47.146667-38.186667-85.333333-85.333333-85.333333zM512 128c23.466667 0 42.666667 18.986667 42.666667 42.666667s-19.2 42.666667-42.666667 42.666666-42.666667-18.986667-42.666667-42.666666 19.2-42.666667 42.666667-42.666667z m85.333333 597.333333H298.666667v-85.333333h298.666666v85.333333z m128-170.666666H298.666667v-85.333334h426.666666v85.333334z m0-170.666667H298.666667v-85.333333h426.666666v85.333333z" p-id="840"></path></svg>