<?xml version="1.0" standalone="no"?><!DOCTYPE svg PUBLIC "-//W3C//DTD SVG 1.1//EN"
        "http://www.w3.org/Graphics/SVG/1.1/DTD/svg11.dtd">
<svg t="1541870273214" class="icon" style="" viewBox="0 0 1280 1024" version="1.1" xmlns="http://www.w3.org/2000/svg"
     p-id="5681"
     width="250" height="200">
    <defs>
        <style type="text/css"></style>
    </defs>
    <path d="M512 672h-0.04c0-32.36 2.68-17.46-170.1-363.02-35.3-70.58-136.38-70.72-171.74 0C-4.12 657.5 0.04 640.66 0.04 672H0c0 88.36 114.62 160 256 160s256-71.64 256-160zM256 352l144 288H112l144-288z m1023.96 320c0-32.36 2.68-17.46-170.1-363.02-35.3-70.58-136.38-70.72-171.74 0-174.24 348.52-170.08 331.68-170.08 363.02H768c0 88.36 114.62 160 256 160s256-71.64 256-160h-0.04zM880 640l144-288 144 288H880z m176 256H704V306.5c47.02-20.58 82.32-62.96 92.78-114.5H1056c17.68 0 32-14.32 32-32V96c0-17.68-14.32-32-32-32H767.28C738.08 25.36 692.18 0 640 0s-98.08 25.36-127.28 64H224c-17.68 0-32 14.32-32 32v64c0 17.68 14.32 32 32 32h259.22c10.46 51.52 45.74 93.92 92.78 114.5V896H224c-17.68 0-32 14.32-32 32v64c0 17.68 14.32 32 32 32h832c17.68 0 32-14.32 32-32v-64c0-17.68-14.32-32-32-32z"
          fill="" p-id="5682"></path>
</svg>