<?xml version="1.0" encoding="UTF-8" standalone="no"?>
<svg
   xmlns:dc="http://purl.org/dc/elements/1.1/"
   xmlns:cc="http://creativecommons.org/ns#"
   xmlns:rdf="http://www.w3.org/1999/02/22-rdf-syntax-ns#"
   xmlns:svg="http://www.w3.org/2000/svg"
   xmlns="http://www.w3.org/2000/svg"
   xmlns:sodipodi="http://sodipodi.sourceforge.net/DTD/sodipodi-0.dtd"
   xmlns:inkscape="http://www.inkscape.org/namespaces/inkscape"
   t="1511504199105"
   class="icon"
   style=""
   viewBox="0 0 1024 1024"
   version="1.1"
   p-id="1815"
   width="64"
   height="64"
   id="svg895"
   sodipodi:docname="bank-int.svg"
   inkscape:version="0.92.4 (5da689c313, 2019-01-14)">
  <metadata
     id="metadata899">
    <rdf:RDF>
      <cc:Work
         rdf:about="">
        <dc:format>image/svg+xml</dc:format>
        <dc:type
           rdf:resource="http://purl.org/dc/dcmitype/StillImage" />
      </cc:Work>
    </rdf:RDF>
  </metadata>
  <sodipodi:namedview
     pagecolor="#ffffff"
     bordercolor="#666666"
     borderopacity="1"
     objecttolerance="10"
     gridtolerance="10"
     guidetolerance="10"
     inkscape:pageopacity="0"
     inkscape:pageshadow="2"
     inkscape:window-width="1664"
     inkscape:window-height="923"
     id="namedview897"
     showgrid="false"
     inkscape:zoom="12.09375"
     inkscape:cx="25.962601"
     inkscape:cy="35.208528"
     inkscape:window-x="0"
     inkscape:window-y="0"
     inkscape:window-maximized="0"
     inkscape:current-layer="svg895" />
  <defs
     id="defs891">
    <style
       type="text/css"
       id="style889" />
  </defs>
  <path
     style="stroke-width:0.0625"
     d="M 30.666016 2.6660156 L 5.3339844 16 L 5.3339844 21.333984 L 10.666016 21.333984 L 10.666016 50.666016 L 5.3339844 50.666016 L 5.3339844 58.666016 L 56 58.666016 L 56 50.666016 L 50.666016 50.666016 L 50.666016 21.333984 L 56 21.333984 L 56 16 L 30.666016 2.6660156 z M 16.845703 24.255859 L 21.884766 24.255859 L 21.884766 47.214844 L 16.845703 47.214844 L 16.845703 24.255859 z M 26.847656 24.255859 L 32.476562 24.255859 L 39.585938 40.001953 L 39.585938 24.255859 L 44.363281 24.255859 L 44.363281 47.214844 L 38.734375 47.214844 L 31.625 31.46875 L 31.625 47.214844 L 26.847656 47.214844 L 26.847656 24.255859 z "
     transform="scale(16)"
     id="path893" />
</svg>
