<?xml version="1.0" encoding="UTF-8" standalone="no"?>
<svg
        xmlns:dc="http://purl.org/dc/elements/1.1/"
        xmlns:cc="http://creativecommons.org/ns#"
        xmlns:rdf="http://www.w3.org/1999/02/22-rdf-syntax-ns#"
        xmlns:sodipodi="http://sodipodi.sourceforge.net/DTD/sodipodi-0.dtd"
        xmlns:inkscape="http://www.inkscape.org/namespaces/inkscape"
        xmlns="http://www.w3.org/2000/svg"
        t="1541960139647"
        class="icon"
        style=""
        viewBox="0 0 1024 1024"
        version="1.1"
        p-id="1718"
        width="200"
        height="200"
        id="svg10"
        sodipodi:docname="dollar-circle-fill-IN-PROGRESS.svg"
        inkscape:version="0.92.2 5c3e80d, 2017-08-06"
        enable-background="new">
    <metadata
            id="metadata14">
        <rdf:RDF>
            <cc:Work
                    rdf:about="">
                <dc:format>image/svg+xml</dc:format>
                <dc:type
                        rdf:resource="http://purl.org/dc/dcmitype/StillImage"/>
                <dc:title/>
            </cc:Work>
        </rdf:RDF>
    </metadata>
    <sodipodi:namedview
            pagecolor="#ffffff"
            bordercolor="#666666"
            borderopacity="1"
            objecttolerance="10"
            gridtolerance="10"
            guidetolerance="10"
            inkscape:pageopacity="0"
            inkscape:pageshadow="2"
            inkscape:window-width="1495"
            inkscape:window-height="920"
            id="namedview12"
            showgrid="false"
            inkscape:lockguides="false"
            inkscape:zoom="2.56"
            inkscape:cx="77.367675"
            inkscape:cy="105.68989"
            inkscape:window-x="61"
            inkscape:window-y="44"
            inkscape:window-maximized="0"
            inkscape:current-layer="layer5"
            inkscape:snap-midpoints="true"
            inkscape:snap-object-midpoints="true"
            inkscape:snap-center="true"/>
    <defs
            id="defs4">
        <style
                type="text/css"
                id="style2"/>
    </defs>
    <g
            inkscape:groupmode="layer"
            id="layer6"
            inkscape:label="back back"
            style="display:inline"/>
    <g
            inkscape:groupmode="layer"
            id="layer5"
            inkscape:label="back"
            style="display:inline">
        <path
                style="display:inline;fill:#ff2a2a;stroke-width:6.86841822"
                d="m 514.71149,502.947 -4.41687,4.93519 4.43943,-1.99436 z"
                id="path48"
                inkscape:connector-curvature="0"/>
        <path
                style="display:inline;fill:#f8d227;fill-opacity:1;stroke-width:5.3722024"
                d="M 511.57405,110.21164 A 394.75697,396.25805 0 0 0 117.23471,506.45459 394.75697,396.25805 0 0 0 511.98826,902.70635 394.75697,396.25805 0 0 0 906.75059,506.45459 394.75697,396.25805 0 0 0 870.61716,342.4616 l -354.47795,158.94312 -1.42772,1.54228 -0.009,-0.89893 -3.47236,1.55991 3.45471,-3.86011 z"
                id="path43"
                inkscape:connector-curvature="0"/>
        <path
                style="display:inline;fill:#73c7ec;fill-opacity:0.98571424;stroke-width:5.3722024"
                d="M 671.28969,373.0492 1025.7676,214.10608 A 394.75697,396.25805 0 0 0 935.51335,88.176605 Z"
                id="path50"
                inkscape:connector-curvature="0"/>
        <path
                style="display:inline;fill:#30cd4e;fill-opacity:0.90588235;stroke:none;stroke-width:5.3722024;stroke-opacity:1"
                d="M 553.61367,37.581013 556.75112,430.31637 822.40249,143.90148 A 394.75697,396.25805 0 0 0 554.02789,37.56339 394.75697,396.25805 0 0 0 553.61367,37.58097 Z"
                id="ellipse31"
                inkscape:connector-curvature="0"/>
        <path
                style="display:inline;fill:#f8d227;fill-opacity:0;stroke-width:2.39958405"
                d="M 479.92232,1015.6459 C 333.69906,1006.5773 197.65566,933.27394 109.8599,816.24758 42.449216,726.39329 8.3099343,623.26945 8.450888,509.92342 8.5881612,399.54037 42.47258,297.41455 108.65894,207.90179 c 19.81163,-26.79395 77.15572,-83.9126 103.19095,-102.78528 78.92178,-57.209609 165.47202,-89.425024 261.9718,-97.510202 18.55769,-1.554847 34.12408,-2.3872837 34.59197,-1.8498675 0.46792,0.5374392 1.58478,65.2502295 2.48196,143.8062495 l 1.63122,142.82912 -20.18434,2.75235 c -59.63121,8.13135 -102.57685,39.71648 -115.23984,84.75515 -8.89289,31.62943 -7.03141,59.78632 5.65635,85.55883 14.06031,28.56055 46.3201,50.24333 102.70651,69.03207 l 26.85121,8.94719 v 80.18765 80.18771 l -11.39805,-0.0288 c -14.02507,-0.0346 -32.54434,-4.81128 -47.37588,-12.2185 -22.36362,-11.16894 -38.55234,-36.89258 -41.22418,-65.50459 l -1.47843,-15.83213 h -18.84967 -18.84969 v 47.69618 47.69617 l 11.77761,5.06662 c 33.78082,14.53209 77.92174,25.94985 110.00128,28.45347 l 17.39701,1.35779 v 45.24574 45.24574 h 17.99683 17.99689 V 785.3983 739.80619 l 6.59886,-0.0288 c 15.79902,-0.0756 52.92178,-9.89492 71.97947,-19.03946 48.69819,-23.36696 72.81021,-64.31653 69.63427,-118.25994 -1.59236,-27.04671 -8.45573,-43.94414 -25.1914,-62.02064 -16.8443,-18.1939 -39.16234,-31.48634 -76.24962,-45.41367 l -29.15908,-10.95007 201.64644,-90.41539 c 110.90551,-49.72846 201.97441,-90.0874 202.37524,-89.68655 1.97518,1.97517 20.34411,53.38065 25.79004,72.1735 11.92893,41.16405 16.14693,71.12468 17.41323,123.68531 0.9134,37.91096 0.2735,55.79472 -2.7898,77.98647 C 995.38859,686.27693 949.64309,782.07502 875.8537,859.50982 771.87121,968.62937 629.17048,1024.9044 479.92232,1015.6483 Z"
                id="path52"
                inkscape:connector-curvature="0"/>
        <path
                style="display:inline;fill:#f8d227;fill-opacity:0;stroke-width:2.39958405"
                d="M 476.80286,1015.5676 C 391.13528,1010.1793 304.66721,980.64705 232.70324,932.1979 126.44359,860.65947 49.45587,749.94387 21.331869,628.22582 8.1891085,571.34524 4.7470744,498.25799 12.574898,442.28274 42.206965,230.3897 201.80719,59.290454 409.61451,16.636851 436.8536,11.045879 506.76078,3.3883041 508.94347,5.7564405 c 0.49532,0.5374392 1.35749,65.3637975 1.91592,144.0586195 l 1.01526,143.08148 -14.12347,1.4762 c -52.9845,5.53797 -95.77366,31.38042 -114.25284,69.0028 -15.0756,30.69289 -15.62246,72.67186 -1.33016,102.10468 13.20163,27.18676 49.12743,51.13373 103.63312,69.07847 l 26.99529,8.88759 v 80.52958 80.52959 l -17.39696,-1.33431 c -47.0502,-3.60868 -78.02693,-32.28547 -82.93459,-76.77697 l -1.65074,-14.9654 -19.79657,-0.69695 -19.79657,-0.69695 v 47.77169 47.77163 l 23.39594,8.99495 c 31.24633,12.01312 73.40153,22.49947 98.07137,24.39574 l 20.10812,1.54563 v 45.23812 45.23807 h 17.99689 17.99689 v -45.26172 -45.26172 l 13.79764,-1.59576 c 54.5236,-6.30591 101.30539,-32.85498 120.13105,-68.17557 18.12779,-34.01127 19.56283,-77.58377 3.59882,-109.27503 -14.98219,-29.74226 -49.28525,-53.04908 -104.68649,-71.128 -8.99276,-2.93459 -16.01155,-5.64027 -15.59733,-6.01266 1.40642,-1.26424 399.06986,-179.1738 401.41352,-179.5873 3.87261,-0.68323 22.25757,48.25439 31.0149,82.55652 64.21092,251.51123 -72.11256,510.19189 -315.96397,599.55749 -62.1509,22.77685 -136.20658,33.13135 -205.69565,28.76065 z"
                id="path4552"
                inkscape:connector-curvature="0"/>
        <path
                style="display:inline;fill:#f8d227;fill-opacity:0;stroke-width:2.39958405"
                d="M 476.80286,1015.5676 C 391.13528,1010.1793 304.66721,980.64705 232.70324,932.1979 126.44359,860.65947 49.45587,749.94387 21.331869,628.22582 8.1891085,571.34524 4.7470744,498.25799 12.574898,442.28274 42.206965,230.3897 201.80719,59.290454 409.61451,16.636851 436.8536,11.045879 506.76078,3.3883041 508.94347,5.7564405 c 0.49532,0.5374392 1.35749,65.3637975 1.91592,144.0586195 l 1.01526,143.08148 -14.12347,1.4762 c -52.9845,5.53797 -95.77366,31.38042 -114.25284,69.0028 -15.0756,30.69289 -15.62246,72.67186 -1.33016,102.10468 13.20163,27.18676 49.12743,51.13373 103.63312,69.07847 l 26.99529,8.88759 v 80.52958 80.52959 l -17.39696,-1.33431 c -47.0502,-3.60868 -78.02693,-32.28547 -82.93459,-76.77697 l -1.65074,-14.9654 -19.79657,-0.69695 -19.79657,-0.69695 v 47.77169 47.77163 l 23.39594,8.99495 c 31.24633,12.01312 73.40153,22.49947 98.07137,24.39574 l 20.10812,1.54563 v 45.23812 45.23807 h 17.99689 17.99689 v -45.26172 -45.26172 l 13.79764,-1.59576 c 54.5236,-6.30591 101.30539,-32.85498 120.13105,-68.17557 18.12779,-34.01127 19.56283,-77.58377 3.59882,-109.27503 -14.98219,-29.74226 -49.28525,-53.04908 -104.68649,-71.128 -8.99276,-2.93459 -16.01155,-5.64027 -15.59733,-6.01266 1.40642,-1.26424 399.06986,-179.1738 401.41352,-179.5873 3.87261,-0.68323 22.25757,48.25439 31.0149,82.55652 64.21092,251.51123 -72.11256,510.19189 -315.96397,599.55749 -62.1509,22.77685 -136.20658,33.13135 -205.69565,28.76065 z"
                id="path4554"
                inkscape:connector-curvature="0"/>
        <g
                aria-label="$"
                style="font-style:normal;font-weight:normal;font-size:204.80000305px;line-height:1.25;font-family:sans-serif;letter-spacing:0px;word-spacing:0px;display:inline;fill:#000000;fill-opacity:1;stroke:none;stroke-width:5.11999989"
                id="text18"
                transform="matrix(1.2485843,0,0,1.2485843,-153.73648,-140.98676)">
            <text
         xml:space="preserve"
         style="font-style:normal;font-weight:normal;font-size:621.58746338px;line-height:1.25;font-family:sans-serif;letter-spacing:0px;word-spacing:0px;fill:#000000;fill-opacity:1;stroke:none;stroke-width:79.56319427"
         x="334.49649"
         y="712.72369"
         id="text834"><tspan
           sodipodi:role="line"
           id="tspan832"
           x="334.49649"
           y="712.72369"
           style="font-style:normal;font-variant:normal;font-weight:normal;font-stretch:normal;font-family:'Bitstream Vera Sans Mono';-inkscape-font-specification:'Bitstream Vera Sans Mono';stroke-width:79.56319427">$</tspan></text>
        </g>
    </g>
</svg>
