<svg class="icon" width="200" height="200" enable-background="new" style="" p-id="1718" t="1541960139647" version="1.1"
     viewBox="0 0 1024 1024" xmlns="http://www.w3.org/2000/svg">
 <defs>
  <style type="text/css"/>
 </defs>
 <g stroke-width="1.0493">
  <path transform="scale(5.12)"
        d="m104.74 103.7v31.648c0.64168-0.06085 1.2647-0.14275 1.8692-0.24609 1.2089-0.20669 2.3434-0.49867 3.4043-0.875s2.0481-0.83691 2.9609-1.3828c0.91284-0.54593 1.7508-1.1771 2.5156-1.8926s1.4343-1.495 2.0078-2.3398c0.57352-0.84491 1.0513-1.7561 1.4336-2.7305 0.38228-0.97441 0.66827-2.0132 0.85938-3.1172s0.2871-2.2723 0.2871-3.5059c0-1.1472-0.08709-2.2304-0.25976-3.248-0.17268-1.0177-0.43003-1.9692-0.77539-2.8574-0.34537-0.88818-0.77878-1.712-1.2969-2.4707-0.51808-0.75866-1.1217-1.4529-1.8125-2.082-0.69081-0.64147-1.4826-1.2317-2.377-1.7715s-1.8905-1.0288-2.9883-1.4668c-1.6973-0.67722-3.6441-1.2282-5.8281-1.6621z"/>
  <path transform="scale(5.12)"
        d="m95.361 58.711c-1.2829 0.049343-2.4965 0.17892-3.6406 0.38867-1.1441 0.20976-2.2192 0.499-3.2246 0.86914s-1.94 0.82107-2.8066 1.3516c-0.86659 0.53049-1.6648 1.1412-2.3926 1.832-0.71548 0.69081-1.3423 1.4401-1.8789 2.248-0.53662 0.80793-0.98209 1.6745-1.3398 2.5996s-0.62776 1.9089-0.80664 2.9512-0.26758 2.1432-0.26758 3.3027c0 1.0609 0.083351 2.0657 0.25 3.0156 0.16665 0.94989 0.41678 1.8447 0.75 2.6836s0.75028 1.6218 1.25 2.3496c0.49972 0.72785 1.0819 1.4008 1.748 2.0176 0.67847 0.61679 1.4447 1.1822 2.2988 1.6973s1.7963 0.97933 2.8262 1.3926c2.0598 0.8265 4.4711 1.4497 7.2344 1.8691v-30.568z"
        fill-opacity="1"/>
  <path transform="scale(5.12)"
        d="m95.518 21.75a77.101 77.394 0 0 0 -72.621 77.166 77.101 77.394 0 0 0 77.102 77.395 77.101 77.394 0 0 0 77.104 -77.395 77.101 77.394 0 0 0 -7.0566 -32.029l-58.021 26.014c1.4248 0.43577 2.8833 0.84884 4.1738 1.375 1.9367 0.78958 3.723 1.6807 5.3574 2.6738s3.1169 2.0886 4.4492 3.2852c1.3323 1.1966 2.4988 2.4811 3.498 3.8535s1.8318 2.8327 2.498 4.3809 1.165 3.1842 1.498 4.9082c0.33311 1.724 0.5 3.5358 0.5 5.4356s-0.18016 3.7205-0.54102 5.4629-0.9033 3.4071-1.625 4.9922c-0.72169 1.5851-1.6226 3.0917-2.7051 4.5195s-2.3458 2.7763-3.7891 4.0469c-1.431 1.2706-2.972 2.3963-4.625 3.377s-3.418 1.8171-5.293 2.5078c-1.875 0.69073-3.86 1.2359-5.957 1.6367-1.5154 0.28964-3.091 0.50236-4.7227 0.64062v22.547l-1.9766 0.00781v-0.00195h-7.4023l-0.074219-22.275c-2.5165-0.12335-5.0255-0.35777-7.5293-0.70313-2.5038-0.34536-5.0023-0.80173-7.4941-1.3691-2.4672-0.56745-4.9224-1.2452-7.3652-2.0352-2.4428-0.78982-4.8732-1.6916-7.291-2.7031v-13.322c2.4672 1.5296 4.9404 2.8809 7.4199 4.0527 2.4795 1.1719 4.9652 2.1644 7.457 2.9785 2.5165 0.81416 5.0147 1.4371 7.4941 1.8691 2.4795 0.43207 4.9403 0.6733 7.3828 0.72265v-33.9c-2.4672-0.38241-4.7816-0.85646-6.9434-1.4238-2.1617-0.5674-4.1709-1.228-6.0273-1.9805-1.8564-0.75242-3.5602-1.5977-5.1113-2.5352s-2.9494-1.9673-4.1953-3.0898c-1.2459-1.1226-2.3369-2.3361-3.2715-3.6406s-1.7128-2.701-2.3359-4.1875c-0.62309-1.4865-1.0908-3.064-1.4023-4.7324-0.31158-1.6684-0.4668-3.427-0.4668-5.2773 0-1.9367 0.16252-3.7743 0.48633-5.5137s0.80944-3.3799 1.457-4.9219c0.64762-1.542 1.4563-2.9855 2.4277-4.3301 0.97144-1.3446 2.1051-2.591 3.4004-3.7383 1.3076-1.1596 2.7467-2.1967 4.3164-3.1094 1.5697-0.91272 3.2697-1.7012 5.1016-2.3672 1.8319-0.66596 3.7947-1.2077 5.8887-1.627 2.094-0.41928 4.3196-0.71597 6.6758-0.88867l0.15625-26.748v-0.001953z"/>
 </g>
 <path d="m671.29 373.05 354.48-158.94a394.76 396.26 0 0 0 -90.254 -125.93z" fill-opacity="1"
       stroke-width="5.3722"/>
 <path d="m533.55 37.56a394.76 396.26 0 0 0 -0.42 0.02l1.71 213.87c10.544 1.1316 21.125 2.4557 31.84 4.44 20.464 3.7896 41.308 8.9614 62.53 15.53v58.69l172.71-186.21a394.76 396.26 0 0 0 -268.37 -106.34zm1.72 267.47 0.99999 125.29l88.53-95.45c-19.931-9.7915-39.445-17.489-58.5-22.9-10.345-3.1034-20.687-5.2931-31.03-6.94z"
       fill-opacity="1"/>
</svg>
