<?xml version="1.0" standalone="no"?><!DOCTYPE svg PUBLIC "-//W3C//DTD SVG 1.1//EN" "http://www.w3.org/Graphics/SVG/1.1/DTD/svg11.dtd"><svg t="1553063910210" class="icon" style="" viewBox="0 0 1024 1024" version="1.1" xmlns="http://www.w3.org/2000/svg" p-id="20608" xmlns:xlink="http://www.w3.org/1999/xlink" width="200" height="200"><defs><style type="text/css"></style></defs><path d="M576 272V0H176C149.4 0 128 21.4 128 48v928c0 26.6 21.4 48 48 48h672c26.6 0 48-21.4 48-48V320H624c-26.4 0-48-21.6-48-48z m130.36 432.02H576v160c0 17.68-14.32 32-32 32h-64c-17.68 0-32-14.32-32-32v-160H317.64c-28.56 0-42.82-34.58-22.54-54.72l192.84-191.4c13.3-13.22 34.78-13.22 48.08 0l192.84 191.4c20.3 20.14 6.06 54.72-22.5 54.72zM882 210L686.2 14c-9-9-21.2-14-34-14H640v256h256v-12.2c0-12.6-5-24.8-14-33.8z" fill="" p-id="20609"></path></svg>