<?xml version="1.0" standalone="no"?><!DOCTYPE svg PUBLIC "-//W3C//DTD SVG 1.1//EN" "http://www.w3.org/Graphics/SVG/1.1/DTD/svg11.dtd"><svg t="1557524953580" class="icon" style="" viewBox="0 0 1024 1024" version="1.1" xmlns="http://www.w3.org/2000/svg" p-id="1092" xmlns:xlink="http://www.w3.org/1999/xlink" width="200" height="200"><defs><style type="text/css"></style></defs><path d="M911.457097 168.557714a35.986286 35.986286 0 0 1-8.009143 40.009143L621.73824 490.276571V914.285714c0 14.848-9.142857 28.013714-22.272 33.718857A42.349714 42.349714 0 0 1 585.166811 950.857143a34.084571 34.084571 0 0 1-25.709714-10.861714l-146.285714-146.285715A36.425143 36.425143 0 0 1 402.309669 768v-277.723429L120.599954 208.566857a35.986286 35.986286 0 0 1-8.009143-40.009143C118.295954 155.428571 131.461669 146.285714 146.309669 146.285714h731.428571c14.848 0 28.013714 9.142857 33.718857 22.272z" fill="" p-id="1093"></path></svg>