<?xml version="1.0" standalone="no"?><!DOCTYPE svg PUBLIC "-//W3C//DTD SVG 1.1//EN"
        "http://www.w3.org/Graphics/SVG/1.1/DTD/svg11.dtd">
<svg t="1541869833726" class="icon" style="" viewBox="0 0 1280 1024" version="1.1" xmlns="http://www.w3.org/2000/svg"
     p-id="3820"
     width="250" height="200">
    <defs>
        <style type="text/css"></style>
    </defs>
    <path d="M1242.32 108.92C1164.74 76.38 1087.1 64 1009.5 64c-246.34-0.02-492.66 124.68-739 124.68-61.78 0-123.52-7.84-185.3-27.44-6.94-2.2-13.9-3.24-20.7-3.24C30.08 158 0 184.64 0 221.62v634.52c0 25.26 14.46 49.2 37.68 58.92C115.26 947.62 192.9 960 270.5 960c246.34 0 492.68-124.7 739.02-124.7 61.78 0 123.52 7.84 185.3 27.44 6.94 2.2 13.9 3.24 20.7 3.24 34.42 0 64.5-26.64 64.5-63.62V167.86c-0.02-25.28-14.48-49.2-37.7-58.94zM96 264.44c40.24 10.08 82.24 15.14 125.44 17.86C209.68 341.08 158 385.38 96 385.38v-120.94z m0 570v-95.56c68.74 0 124.36 54.54 127.42 122.8-45.06-3.62-87.18-12.62-127.42-27.24zM640 704c-88.38 0-160-85.98-160-192 0-106.04 71.64-192 160-192s160 85.96 160 192c0 106.06-71.66 192-160 192z m544 55.56c-35.04-8.78-71.42-13.7-108.64-16.88 11.74-52.16 55-91.76 108.64-98.56v115.44z m0-472.22c-61.78-7.82-109.72-59.4-111.62-123.1 39.08 4.34 76.18 12.46 111.62 25.32v97.78z"
          fill="" p-id="3821"></path>
</svg>