<?xml version="1.0" standalone="no"?><!DOCTYPE svg PUBLIC "-//W3C//DTD SVG 1.1//EN" "http://www.w3.org/Graphics/SVG/1.1/DTD/svg11.dtd"><svg t="1552243876511" class="icon" style="" viewBox="0 0 1024 1024" version="1.1" xmlns="http://www.w3.org/2000/svg" p-id="20681" xmlns:xlink="http://www.w3.org/1999/xlink" width="200" height="200"><defs><style type="text/css"></style></defs><path d="M341.333333 469.333333a149.333333 149.333333 0 1 0-149.333333-149.333333A149.333333 149.333333 0 0 0 341.333333 469.333333z m0-213.333333a64 64 0 1 1-64 64A64 64 0 0 1 341.333333 256zM682.666667 597.333333a149.333333 149.333333 0 1 0 149.333333 149.333334A149.333333 149.333333 0 0 0 682.666667 597.333333z m0 213.333334a64 64 0 1 1 64-64A64 64 0 0 1 682.666667 810.666667zM842.24 181.76a37.973333 37.973333 0 0 0-53.76 0L181.76 788.48a38.826667 38.826667 0 0 0-11.093333 26.88 37.973333 37.973333 0 0 0 64.853333 26.88L842.24 235.52a37.973333 37.973333 0 0 0 0-53.76z" p-id="20682"></path></svg>